# xmcd
#
# Track frame offsets: 
#        150
#        4908
#        20300
#        38558
#        56863
#        73314
#        90319
#        97087
#        112835
#        128143
#        144796
#        158863
#        165184
#        183215
#        202751
#
# Disc length: 2891 seconds
#
# Revision: 0
# Processed by: cddbd v1.5.2PL0 Copyright (c) Steve Scherf et al.
# Submitted via: ExactAudioCopyFreeDBPlugin 1.0
#
DISCID=b30b490f
DTITLE=112 - Q Mike Slim Daron
DYEAR=2017
DGENRE=R&B
TTITLE0=Intro
TTITLE1=Come Over
TTITLE2=Without You
TTITLE3=Dangerous Games
TTITLE4=Both of Us (feat. Jagged Edge)
TTITLE5=True Colors
TTITLE6=Wannabe Interlude (feat. Faith Evans)
TTITLE7=Wanna Be
TTITLE8=Still Got It
TTITLE9=Lucky
TTITLE10=1's for Ya
TTITLE11=Thank You Interlude
TTITLE12=Simple and Plain
TTITLE13=My Love
TTITLE14=Residue
EXTD=
EXTT0=
EXTT1=
EXTT2=
EXTT3=
EXTT4=
EXTT5=
EXTT6=
EXTT7=
EXTT8=
EXTT9=
EXTT10=
EXTT11=
EXTT12=
EXTT13=
EXTT14=
PLAYORDER=
